<svg width="354" height="266" viewBox="0 0 354 266" fill="none" xmlns="http://www.w3.org/2000/svg">
<g clip-path="url(#clip0_711_802)">
<path d="M0 5.99999C0 2.68628 2.68629 0 6 0H348C351.314 0 354 2.68629 354 6V266H0V5.99999Z" fill="#F6F2EF"/>
<g clip-path="url(#clip1_711_802)">
<path opacity="0.2" d="M99.25 84.2344H77.7812C75.8051 84.2344 74.2031 85.8364 74.2031 87.8125V134.328C74.2031 136.304 75.8051 137.906 77.7812 137.906H99.25C101.226 137.906 102.828 136.304 102.828 134.328V87.8125C102.828 85.8364 101.226 84.2344 99.25 84.2344Z" fill="#1F2937"/>
<path d="M56.3125 170.109H142.188" stroke="#1F2937" stroke-width="3" stroke-linecap="round" stroke-linejoin="round"/>
<path d="M74.2031 152.219H102.828" stroke="#1F2937" stroke-width="3" stroke-linecap="round" stroke-linejoin="round"/>
<path d="M99.25 84.2344H77.7812C75.8051 84.2344 74.2031 85.8364 74.2031 87.8125V134.328C74.2031 136.304 75.8051 137.906 77.7812 137.906H99.25C101.226 137.906 102.828 136.304 102.828 134.328V87.8125C102.828 85.8364 101.226 84.2344 99.25 84.2344Z" stroke="#1F2937" stroke-width="3" stroke-linecap="round" stroke-linejoin="round"/>
<path d="M102.828 105.703C110.338 105.703 117.657 108.066 123.75 112.457C129.842 116.848 134.398 123.045 136.773 130.169C139.148 137.294 139.221 144.985 136.982 152.153C134.743 159.321 130.305 165.603 124.297 170.109" stroke="#1F2937" stroke-width="3" stroke-linecap="round" stroke-linejoin="round"/>
</g>
<g clip-path="url(#clip2_711_802)">
<path d="M290.031 93.3906H264.984V168.531H290.031V93.3906Z" fill="#5EE9B5"/>
<path d="M218.469 168.531V136.328H239.938" stroke="black" stroke-width="3" stroke-linecap="round" stroke-linejoin="round"/>
<path d="M297.188 168.531H211.312" stroke="black" stroke-width="3" stroke-linecap="round" stroke-linejoin="round"/>
<path d="M239.938 168.531V114.859H264.984" stroke="black" stroke-width="3" stroke-linecap="round" stroke-linejoin="round"/>
<path d="M264.984 168.531V93.3906H290.031V168.531" stroke="black" stroke-width="3" stroke-linecap="round" stroke-linejoin="round"/>
</g>
</g>
<defs>
<clipPath id="clip0_711_802">
<rect width="354" height="265.5" fill="white"/>
</clipPath>
<clipPath id="clip1_711_802">
<rect width="114.5" height="114.5" fill="white" transform="translate(42 73.5)"/>
</clipPath>
<clipPath id="clip2_711_802">
<rect width="114.5" height="114.5" fill="white" transform="translate(197 75.5)"/>
</clipPath>
</defs>
</svg>
