<svg width="97" height="97" viewBox="0 0 97 97" fill="none" xmlns="http://www.w3.org/2000/svg">
<rect x="0.5" y="0.387939" width="96" height="96" rx="48" fill="#F6F2EF"/>
<path d="M47.4763 32.5869L46.9852 32.7404C44.5067 33.5149 42.4735 35.3052 41.3915 37.6658V37.6658C40.5395 39.5248 39.0899 41.045 37.2736 41.9845L32.1289 44.6456" stroke="#111827" stroke-width="1.87144" stroke-linecap="round"/>
<path d="M32.4042 44.3713C28.8421 58.0743 37.3233 72.5995 49.9438 72.5995C61.1795 72.5995 66.6607 57.8003 65.8394 47.9341" stroke="#111827" stroke-width="1.87144"/>
<path d="M47.2019 20.8023V20.8023C39.8266 16.9672 30.7488 20.2573 27.5434 27.9273L27.3332 28.4303C26.3474 30.7891 24.7231 32.826 22.6428 34.3119V34.3119C19.7606 36.3707 17.7849 39.463 17.1282 42.9436L15.9886 48.9833C15.6156 50.9602 14.5483 52.745 12.986 54.0125V54.0125C7.7741 58.2411 9.28248 66.5828 15.66 68.6737L16.2612 68.8709C17.1433 69.1601 18.0816 69.2354 18.9986 69.0906L19.1165 69.072C21.3577 68.7181 23.5942 69.7334 24.8032 71.6535V71.6535C26.3268 74.0734 29.4131 74.9814 32.0044 73.7721L34.545 72.5865C35.2875 72.24 36.1251 72.1536 36.9227 72.3413L37.3087 72.4321C39.0056 72.8313 40.7139 71.8149 41.1726 70.1331V70.1331" stroke="#111827" stroke-width="1.87144"/>
<path d="M47.2012 32.5869L51.3126 34.8139C52.9331 35.6917 54.3203 36.9442 55.3585 38.4669L56.525 40.1777C57.4027 41.465 58.7307 42.3769 60.2473 42.7338V42.7338C61.7299 43.0826 63.0335 43.9623 63.9119 45.2066L65.8372 47.9343" stroke="#111827" stroke-width="1.87144" stroke-linecap="round"/>
<path d="M65.9973 51.2227C71.8677 46.0152 73.1796 57.2516 64.7422 58.3479" stroke="#111827" stroke-width="1.87144"/>
<path d="M31.5807 50.4009C26.2116 45.0251 24.686 56.3953 32.4028 57.527" stroke="#111827" stroke-width="1.87144"/>
<ellipse cx="56.5189" cy="50.1267" rx="1.64436" ry="2.46654" fill="#111827"/>
<ellipse cx="40.0755" cy="49.5784" rx="1.64436" ry="2.46654" fill="#111827"/>
<path d="M30.5182 55.8821C30.0673 56.953 29.835 57.871 29.8632 58.4684C29.8885 59.0053 30.3747 59.2963 30.4187 60.9992C30.4391 61.7881 30.0348 62.398 29.7223 63.2934C29.6218 63.5813 29.6642 63.9591 29.7205 64.1901C29.8603 64.7627 30.4311 64.8199 31.0707 65.5705C31.3414 66.3485 31.4575 66.954 31.4294 67.2098C31.4012 67.3246 31.3448 67.4092 31.2868 67.4963" stroke="#111827" stroke-width="1.87144" stroke-linecap="round"/>
<path d="M66.7538 55.8821C67.2047 56.953 67.437 57.871 67.4088 58.4684C67.3835 59.0053 66.8973 59.2963 66.8533 60.9992C66.8329 61.7881 67.2372 62.398 67.5497 63.2934C67.6502 63.5813 67.6078 63.9591 67.5514 64.1901C67.4117 64.7627 66.8409 64.8199 66.2013 65.5705C65.9306 66.3485 65.8144 66.954 65.8426 67.2098C65.8708 67.3246 65.9271 67.4092 65.9852 67.4963" stroke="#111827" stroke-width="1.87144" stroke-linecap="round"/>
<path d="M46.6543 20.802L50.4931 18.6426C53.6029 16.8934 57.348 16.685 60.6326 18.0785V18.0785C63.111 19.1299 65.1425 21.0168 66.3738 23.411L67.3033 25.2185C68.6267 27.7917 71.0663 29.6076 73.9111 30.1369V30.1369C78.1746 30.9301 81.3339 34.5497 81.5435 38.8813L81.8578 45.3771C81.9523 47.3298 82.9678 49.1219 84.5945 50.2064V50.2064C88.3584 52.7156 88.2258 58.29 84.3468 60.6173L80.5558 62.8919C78.789 63.952 77.8574 65.9909 78.2126 68.0205V68.0205C78.8359 71.5819 75.5758 74.5995 72.0732 73.7035L69.8519 73.1352C68.4946 72.788 67.06 72.906 65.7776 73.4702V73.4702C62.9683 74.7063 59.6772 73.7243 58.0045 71.151L57.3426 70.1328" stroke="#111827" stroke-width="1.87144"/>
<path d="M42.8164 62.7334C43.9126 64.1951 47.6399 66.5154 53.7788 64.1037" stroke="#111827" stroke-width="1.87144" stroke-linecap="round"/>
<path d="M47.7495 59.1704C47.8198 59.7435 49.1198 60.2666 50.4901 60.0301" stroke="#111827" stroke-width="1.87144" stroke-linecap="round"/>
<path d="M76.1911 16.9264C76.3373 16.2775 77.262 16.2775 77.4082 16.9264L78.1238 20.1029C78.1767 20.338 78.3602 20.5215 78.5952 20.5744L81.7717 21.29C82.4207 21.4362 82.4207 22.3609 81.7718 22.5071L78.5952 23.2226C78.3602 23.2756 78.1767 23.4591 78.1238 23.6941L77.4082 26.8706C77.262 27.5196 76.3373 27.5196 76.1911 26.8706L75.4755 23.6941C75.4226 23.4591 75.2391 23.2756 75.0041 23.2226L71.8276 22.5071C71.1786 22.3609 71.1786 21.4362 71.8276 21.29L75.0041 20.5744C75.2391 20.5215 75.4226 20.338 75.4755 20.1029L76.1911 16.9264Z" fill="#111827"/>
<path d="M68.2429 13.0895C68.3891 12.4406 69.3138 12.4406 69.46 13.0895L69.8229 14.7003C69.8758 14.9353 70.0593 15.1188 70.2943 15.1718L71.9051 15.5346C72.5541 15.6808 72.5541 16.6056 71.9051 16.7518L70.2943 17.1146C70.0593 17.1675 69.8758 17.3511 69.8229 17.5861L69.46 19.1969C69.3138 19.8458 68.3891 19.8458 68.2429 19.1969L67.88 17.5861C67.8271 17.3511 67.6436 17.1675 67.4086 17.1146L65.7978 16.7518C65.1488 16.6056 65.1488 15.6808 65.7978 15.5346L67.4086 15.1718C67.6436 15.1188 67.8271 14.9353 67.88 14.7003L68.2429 13.0895Z" fill="#111827"/>
</svg>
