<svg width="72" height="65" viewBox="0 0 72 65" fill="none" xmlns="http://www.w3.org/2000/svg">
<g clip-path="url(#clip0_218_2000)">
<path d="M23.5 45.0002H18.5C18.1685 45.0002 17.8505 44.8685 17.6161 44.6341C17.3817 44.3997 17.25 44.0818 17.25 43.7502V37.5002C17.25 37.1687 17.3817 36.8508 17.6161 36.6164C17.8505 36.3819 18.1685 36.2502 18.5 36.2502H23.5V45.0002Z" fill="#5EE9B5"/>
<path d="M37.875 31.2502C38.7038 31.2502 39.4987 31.5794 40.0847 32.1655C40.6708 32.7515 41 33.5464 41 34.3752C41 35.204 40.6708 35.9988 40.0847 36.5849C39.4987 37.1709 38.7038 37.5002 37.875 37.5002H38.5L44.4031 36.1439C47.8469 33.6049 52.25 29.5674 52.25 25.0002C52.25 21.6111 49.4891 18.7502 46.0844 18.7502C44.8675 18.7359 43.6741 19.0852 42.657 19.7532C41.6398 20.4213 40.8453 21.3778 40.375 22.5002C39.9047 21.3778 39.1102 20.4213 38.093 19.7532C37.0759 19.0852 35.8825 18.7359 34.6656 18.7502C31.2609 18.7502 28.5 21.6111 28.5 25.0002C28.5 27.2752 29.5938 29.3299 31.1141 31.2502H37.875Z" fill="#5EE9B5"/>
<path d="M23.5 45.0002H18.5C18.1685 45.0002 17.8505 44.8685 17.6161 44.6341C17.3817 44.3997 17.25 44.0818 17.25 43.7502V37.5002C17.25 37.1687 17.3817 36.8508 17.6161 36.6164C17.8505 36.3819 18.1685 36.2502 18.5 36.2502H23.5" stroke="#1E293B" stroke-width="2.5" stroke-linecap="round" stroke-linejoin="round"/>
<path d="M33.5 37.5003H38.5L48.9688 35.0924C49.3536 34.987 49.7577 34.9717 50.1494 35.0477C50.5412 35.1238 50.9101 35.2892 51.2276 35.5311C51.545 35.7729 51.8024 36.0847 51.9797 36.4423C52.157 36.7998 52.2495 37.1934 52.25 37.5924C52.2502 38.0743 52.1161 38.5467 51.8627 38.9565C51.6093 39.3664 51.2467 39.6975 50.8156 39.9128L44.75 42.5003L34.75 45.0003H23.5V36.2503L27.4062 32.344C27.7554 31.9961 28.1697 31.7204 28.6255 31.5327C29.0813 31.345 29.5696 31.249 30.0625 31.2503H37.875C38.7038 31.2503 39.4987 31.5795 40.0847 32.1655C40.6708 32.7516 41 33.5465 41 34.3753C41 35.2041 40.6708 35.9989 40.0847 36.585C39.4987 37.171 38.7038 37.5003 37.875 37.5003H33.5Z" stroke="#1E293B" stroke-width="2.5" stroke-linecap="round" stroke-linejoin="round"/>
<path d="M31.1141 31.2502C29.5938 29.3314 28.5 27.2752 28.5 25.0002C28.5 21.6111 31.2609 18.7502 34.6656 18.7502C35.8825 18.7359 37.0759 19.0852 38.093 19.7532C39.1102 20.4213 39.9047 21.3778 40.375 22.5002C40.8453 21.3778 41.6398 20.4213 42.657 19.7532C43.6741 19.0852 44.8675 18.7359 46.0844 18.7502C49.4891 18.7502 52.25 21.6111 52.25 25.0002C52.25 29.5674 47.8469 33.6049 44.4031 36.1439" stroke="#1E293B" stroke-width="2.5" stroke-linecap="round" stroke-linejoin="round"/>
</g>
<defs>
<clipPath id="clip0_218_2000">
<rect width="40" height="40" fill="white" transform="translate(16 12.5002)"/>
</clipPath>
</defs>
</svg>
