<svg width="72" height="65" viewBox="0 0 72 65" fill="none" xmlns="http://www.w3.org/2000/svg">
<g clip-path="url(#clip0_218_1992)">
<path d="M33.5 21.3289C33.6775 21.3289 33.8518 21.3696 34.0098 21.447L34.1621 21.5369C34.3081 21.6386 34.4282 21.7722 34.5137 21.9265L34.5869 22.0867L37.7588 30.6941L37.7715 30.7283L37.8057 30.741L46.4131 33.9128C46.58 33.9745 46.7299 34.0732 46.8516 34.2009L46.9629 34.3376C47.0984 34.5321 47.1709 34.7637 47.1709 35.0007C47.1708 35.1782 47.1302 35.3525 47.0527 35.5105L46.9629 35.6628C46.8613 35.8086 46.7282 35.929 46.5742 36.0144L46.4131 36.0876L37.8057 39.2595L37.7715 39.2722L37.7588 39.3064L34.5869 47.9138C34.5253 48.0808 34.4266 48.2307 34.2988 48.3523L34.1621 48.4636C33.9678 48.599 33.7368 48.6716 33.5 48.6716C33.3223 48.6716 33.1474 48.631 32.9893 48.5535L32.8369 48.4636C32.6911 48.362 32.5708 48.229 32.4854 48.075L32.4121 47.9138L29.2402 39.3064L29.2275 39.2722L29.1934 39.2595L20.5859 36.0876C20.4192 36.0261 20.27 35.9271 20.1484 35.7996L20.0361 35.6628C19.9008 35.4685 19.8282 35.2375 19.8281 35.0007C19.8281 34.8231 19.8688 34.6481 19.9463 34.49L20.0361 34.3376C20.1379 34.1917 20.2715 34.0715 20.4258 33.9861L20.5859 33.9128L29.1934 30.741L29.2275 30.7283L29.2402 30.6941L32.4121 22.0867C32.4737 21.92 32.5726 21.7707 32.7002 21.6492L32.8369 21.5369C33.0313 21.4014 33.263 21.3289 33.5 21.3289Z" fill="#5EE9B5" stroke="#1E293B" stroke-width="0.15625"/>
<path d="M29.1668 39.3331L20.559 36.1613C20.3216 36.0737 20.1168 35.9154 19.9722 35.7078C19.8275 35.5003 19.75 35.2533 19.75 35.0003C19.75 34.7473 19.8275 34.5004 19.9722 34.2928C20.1168 34.0853 20.3216 33.927 20.559 33.8394L29.1668 30.6675L32.3387 22.0597C32.4263 21.8224 32.5845 21.6176 32.7921 21.4729C32.9997 21.3283 33.2466 21.2507 33.4996 21.2507C33.7526 21.2507 33.9995 21.3283 34.2071 21.4729C34.4147 21.6176 34.5729 21.8224 34.6605 22.0597L37.8324 30.6675L46.4402 33.8394C46.6776 33.927 46.8824 34.0853 47.027 34.2928C47.1717 34.5004 47.2492 34.7473 47.2492 35.0003C47.2492 35.2533 47.1717 35.5003 47.027 35.7078C46.8824 35.9154 46.6776 36.0737 46.4402 36.1613L37.8324 39.3331L34.6605 47.941C34.5729 48.1783 34.4147 48.3831 34.2071 48.5277C33.9995 48.6724 33.7526 48.7499 33.4996 48.7499C33.2466 48.7499 32.9997 48.6724 32.7921 48.5277C32.5845 48.3831 32.4263 48.1783 32.3387 47.941L29.1668 39.3331Z" stroke="#1E293B" stroke-width="2.5" stroke-linecap="round" stroke-linejoin="round"/>
<path d="M43.5 15.0002V22.5002" stroke="#1E293B" stroke-width="2.5" stroke-linecap="round" stroke-linejoin="round"/>
<path d="M51 23.7502V28.7502" stroke="#1E293B" stroke-width="2.5" stroke-linecap="round" stroke-linejoin="round"/>
<path d="M39.75 18.7502H47.25" stroke="#1E293B" stroke-width="2.5" stroke-linecap="round" stroke-linejoin="round"/>
<path d="M48.5 26.2502H53.5" stroke="#1E293B" stroke-width="2.5" stroke-linecap="round" stroke-linejoin="round"/>
</g>
<defs>
<clipPath id="clip0_218_1992">
<rect width="40" height="40" fill="white" transform="translate(16 12.5002)"/>
</clipPath>
</defs>
</svg>
