<svg width="72" height="65" viewBox="0 0 72 65" fill="none" xmlns="http://www.w3.org/2000/svg">
<g clip-path="url(#clip0_218_1984)">
<path d="M36 28.8284C39.4086 28.8284 42.1719 31.5916 42.1719 35.0002C42.1719 38.4089 39.4086 41.1721 36 41.1721C32.5914 41.1721 29.8281 38.4089 29.8281 35.0002C29.8281 31.5916 32.5914 28.8284 36 28.8284Z" fill="#5EE9B5" stroke="#1E293B" stroke-width="0.15625"/>
<path d="M26 31.2502C28.7614 31.2502 31 29.0117 31 26.2502C31 23.4888 28.7614 21.2502 26 21.2502C23.2386 21.2502 21 23.4888 21 26.2502C21 29.0117 23.2386 31.2502 26 31.2502Z" fill="#5EE9B5"/>
<path d="M46 31.2502C48.7614 31.2502 51 29.0117 51 26.2502C51 23.4888 48.7614 21.2502 46 21.2502C43.2386 21.2502 41 23.4888 41 26.2502C41 29.0117 43.2386 31.2502 46 31.2502Z" fill="#5EE9B5"/>
<path d="M46 31.2502C47.4556 31.2492 48.8914 31.5875 50.1934 32.2385C51.4953 32.8895 52.6275 33.8351 53.5 35.0002" stroke="#1E293B" stroke-width="2.5" stroke-linecap="round" stroke-linejoin="round"/>
<path d="M18.5 35.0002C19.3725 33.8351 20.5047 32.8895 21.8066 32.2385C23.1086 31.5875 24.5444 31.2492 26 31.2502" stroke="#1E293B" stroke-width="2.5" stroke-linecap="round" stroke-linejoin="round"/>
<path d="M36 41.2502C39.4518 41.2502 42.25 38.452 42.25 35.0002C42.25 31.5485 39.4518 28.7502 36 28.7502C32.5482 28.7502 29.75 31.5485 29.75 35.0002C29.75 38.452 32.5482 41.2502 36 41.2502Z" stroke="#1E293B" stroke-width="2.5" stroke-linecap="round" stroke-linejoin="round"/>
<path d="M27.25 46.2502C28.1473 44.7275 29.4265 43.4653 30.9611 42.5884C32.4957 41.7115 34.2325 41.2502 36 41.2502C37.7675 41.2502 39.5043 41.7115 41.0389 42.5884C42.5735 43.4653 43.8527 44.7275 44.75 46.2502" stroke="#1E293B" stroke-width="2.5" stroke-linecap="round" stroke-linejoin="round"/>
<path d="M41.1562 25.0002C41.39 24.0949 41.873 23.2732 42.5503 22.6285C43.2276 21.9839 44.0721 21.542 44.9879 21.3532C45.9037 21.1644 46.8541 21.2362 47.7311 21.5604C48.6082 21.8846 49.3768 22.4483 49.9496 23.1874C50.5223 23.9265 50.8764 24.8114 50.9715 25.7416C51.0667 26.6718 50.899 27.61 50.4877 28.4498C50.0764 29.2895 49.4378 29.997 48.6445 30.4921C47.8513 30.9871 46.9351 31.2498 46 31.2502" stroke="#1E293B" stroke-width="2.5" stroke-linecap="round" stroke-linejoin="round"/>
<path d="M25.9994 31.2502C25.0644 31.2498 24.1482 30.9871 23.3549 30.4921C22.5616 29.997 21.9231 29.2895 21.5117 28.4498C21.1004 27.61 20.9328 26.6718 21.0279 25.7416C21.123 24.8114 21.4771 23.9265 22.0499 23.1874C22.6227 22.4483 23.3912 21.8846 24.2683 21.5604C25.1453 21.2362 26.0957 21.1644 27.0115 21.3532C27.9273 21.542 28.7718 21.9839 29.4492 22.6285C30.1265 23.2732 30.6094 24.0949 30.8432 25.0002" stroke="#1E293B" stroke-width="2.5" stroke-linecap="round" stroke-linejoin="round"/>
</g>
<defs>
<clipPath id="clip0_218_1984">
<rect width="40" height="40" fill="white" transform="translate(16 12.5002)"/>
</clipPath>
</defs>
</svg>
