<svg width="72" height="34" viewBox="0 0 72 34" fill="none" xmlns="http://www.w3.org/2000/svg">
<g clip-path="url(#clip0_200_1735)">
<path d="M26.373 10.9804C32.1375 10.852 35.2063 6.62199 36.0212 4.52041L27.3074 1.00683C26.9432 0.860557 26.5462 1.12325 26.5402 1.51432L26.373 10.9804Z" fill="#69F7A5"/>
<path d="M37.3239 26.1213V17.5538H34.9238V12.7536H37.3239V8.78031L44.8974 5.46973V12.7536H48.0438V17.5538H44.8586V26.1631C44.8586 26.9094 45.2317 27.2378 45.975 27.2378H47.9632V32.2888H42.4585C38.1538 32.041 37.3269 29.9305 37.3269 26.1213H37.3239Z" fill="black"/>
<path d="M25.7773 13.6489H33.2254V32.2676H25.7773V13.6489Z" fill="black"/>
<path d="M0 6.35889H7.88391V24.3029L10.0601 19.1385L13.5259 13.8726H23.2099L18.4187 19.649L13.5946 21.3834L18.9978 23.7626L23.2458 32.1212H13.7976L11.2841 26.6851L11.2512 21.3147L9.7228 23.9984L7.8869 26.106V32.1212H0V6.35889Z" fill="black"/>
<path d="M49.2324 23.0433C49.2324 19.9596 50.4026 17.4102 52.3848 15.637C54.4058 13.831 57.1671 12.8369 60.2508 12.8369C63.9017 12.8369 66.6302 13.5802 68.472 15.1743C70.2781 16.7326 71.2005 19.1088 71.2005 22.3687V24.0702H59.5433L56.9581 22.5478V23.3986C57.0298 26.9062 59.3672 27.8972 60.9613 27.8972C62.7315 27.8972 64.5047 27.2226 65.1435 26.339L69.9975 29.7391C68.2959 31.972 64.6122 33.0348 60.6419 33.0348C53.7311 33.0348 49.2324 30.2347 49.2324 23.0433ZM63.5823 21.3417V21.0582C63.5823 20.0312 63.442 19.2163 62.9793 18.6491C62.5195 18.0461 61.7046 17.7625 60.3941 17.7625C59.2597 17.7625 58.2686 18.0461 57.6298 18.861C57.1701 19.4999 56.9551 20.2074 56.9223 21.3417H63.5853H63.5823Z" fill="black"/>
</g>
<defs>
<clipPath id="clip0_200_1735">
<rect width="71.2" height="32.07" fill="white" transform="translate(0 0.964844)"/>
</clipPath>
</defs>
</svg>
