<?xml version="1.0" encoding="UTF-8"?>
<svg id="Layer_1" data-name="Layer 1" xmlns="http://www.w3.org/2000/svg" viewBox="0 0 291 135">
  <defs>
    <style>
      .cls-1 {
        fill: none;
      }

      .cls-2 {
        fill: #5ee9b5;
      }
    </style>
  </defs>
  <rect class="cls-1" x="0" width="291" height="135"/>
  <path class="cls-2" d="M111.6,45.27c20.84-.81,31.06-16.62,33.87-24.27l-31.11-11.86c-1.32-.51-2.74.47-2.74,1.89l-.02,34.25Z"/>
  <path d="M154.31,100.21v-31.54h-8.84v-17.68h8.84v-14.63l27.88-12.19v26.82h11.58v17.68h-11.73v31.69c0,2.74,1.37,3.96,4.11,3.96h7.32v18.59h-20.27c-15.85-.91-18.89-8.69-18.89-22.7Z"/>
  <path d="M111.6,51h27.87v71.91h-27.87V51Z"/>
  <path d="M12,21.63h31.03v70.61l8.56-20.33,13.64-20.73h38.12l-18.86,22.73-18.99,6.82,21.26,9.36,16.72,32.9h-37.18l-9.9-21.4-.13-21.13-6.02,10.57-7.22,8.29v23.67H12V21.63Z"/>
  <path d="M198.94,87.5c0-11.35,4.3-20.74,11.61-27.26,7.44-6.65,17.61-10.31,28.96-10.31,13.44,0,23.48,2.74,30.27,8.61,6.65,5.74,10.05,14.48,10.05,26.48v6.26h-54l1.56-5.61v3.13c.26,12.91,8.87,16.57,14.74,16.57,6.52,0,13.05-2.48,15.39-5.74l17.87,12.52c-6.26,8.22-19.83,12.13-34.44,12.13-25.44,0-42.01-10.31-42.01-36.79ZM251.78,81.24v-1.04c0-3.78-.52-6.78-2.22-8.87-1.69-2.22-4.7-3.26-9.52-3.26-4.18,0-7.83,1.04-10.18,4.04-1.7,2.35-2.48,4.96-2.61,9.13h24.53Z"/>
</svg>