<svg width="916" height="534" viewBox="0 0 916 534" fill="none" xmlns="http://www.w3.org/2000/svg">
<path d="M177.657 266.435C177.817 269.002 179.255 273.053 181.069 277.227C182.611 280.762 186.192 282.914 191.757 285.058C193.318 285.659 195.715 285.706 199.503 286.073C203.649 286.477 206.422 287.831 207.55 289.006C209.214 290.754 209.853 292.644 211.028 293.988C212.523 295.689 214.13 296.178 215.465 297.146C216.198 297.673 217.232 298.321 219.676 300.502C224.762 305.033 228.785 308.483 229.801 310.034C232.198 313.7 232.433 319.171 233.232 324.793C233.504 327.538 233.721 329.249 233.768 330.471C233.796 330.819 233.862 331.486 233.909 331.984C233.946 332.388 233.862 332.802 233.674 333.169C231.117 338.123 230.233 340.595 229.547 344.816C229.067 347.767 229.989 352.092 230.261 354.639C230.534 357.854 230.383 359.01 230.12 362.206C230.007 364.951 229.81 365.628 229.725 370.808L229.697 372.566C229.509 376.128 229.631 377.52 229.951 378.478C230.026 378.695 230.271 378.854 232.226 379.71C234.181 380.565 237.894 382.079 240.376 383.385C244.202 385.416 245.725 387.193 246.712 387.757C247.492 388.208 248.291 389.176 248.977 390.201C249.664 391.225 250.124 392.325 250.406 393.5C251.29 397.091 253.367 405.693 253.734 408.625C254.129 411.803 254.392 417.622 254.815 421.88C255.501 428.686 256.197 431.647 256.234 432.446C256.291 433.348 256.469 435.699 256.281 439.242C255.952 445.372 253.349 448.765 253.114 450.617C252.672 454.057 251.365 459.171 250.698 461.446C249.654 463.815 248.714 465.479 248.282 467.227C248.019 467.801 248.282 467.312 247.661 469.089L247.436 470.104C247.323 471.345 247.285 471.805 247.173 472.633C246.731 474.673 246.063 475.998 245.452 477.558C244.512 480.219 242.407 482.202 242.407 484.534C242.407 486.085 242.811 487.495 243.187 488.51C243.845 490.287 244.258 492.204 244.794 493.99C245.405 496.04 244.127 499.706 247.455 503.4C249.4 505.553 250.698 507.123 254.157 510.149C256.375 512.086 258.162 514.605 261.301 515.01C263.454 515.282 271.096 517.933 276.793 514.229C277.395 513.844 277.075 513.496 276.727 513.233C276.069 512.735 275.308 512.387 274.734 511.738C272.948 509.736 270.918 506.906 269.752 505.092C268.54 503.212 265.644 499.96 264.657 494.018C264.112 490.691 264.554 487.166 270.081 476.656C270.081 476.656 270.655 475.904 274.81 471.552C277.724 469.239 278.983 467.679 281.625 465.441C284.191 463.27 287.585 461.268 290.311 458.983C294.08 455.806 297.653 453.099 299.335 450.861C299.937 450.053 299.429 442.533 300.548 437.785C300.745 436.93 301.046 435.285 302.842 432.051C304.44 429.175 306.611 426.599 308.811 424.174C309.741 423.149 310.7 422.143 311.687 421.166C312.279 420.573 312.844 419.558 313.774 419.577C314.827 419.605 315.964 420.761 316.51 421.006C317.487 421.438 318.371 422.049 318.916 422.97C319.565 424.07 320.166 424.672 320.947 424.39C322.056 423.986 324.838 422.03 327.264 420.291C328.674 419.285 329.661 418.129 330.695 417.593C332.208 416.813 334.699 415.394 336.955 413.448C338.215 412.367 339.042 411.549 339.531 409.462C339.888 407.92 340.283 405.42 340.509 404.066C340.734 402.713 340.781 402.506 341.016 401.895C341.646 400.278 342.257 398.915 342.22 396.461C342.191 394.356 342.041 390.605 341.966 388.518C341.891 386.441 341.9 386.036 341.862 385.66C341.74 384.372 341.571 383.282 341.317 375.969L341.355 375.546C341.618 374.164 341.834 373.402 342.455 372.594C343.79 371.635 346.281 370.639 347.352 369.839C348.133 369.257 348.875 368.119 349.806 366.916C351.197 365.111 351.479 363.616 351.705 360.561C351.874 358.249 352.645 356.03 351.902 351.133C351.648 349.45 351.629 346.827 350.558 345.427C349.11 343.547 346.694 341.535 344.692 340.275C342.897 339.147 341.966 336.59 335.038 331.909C329.67 328.28 326.436 325.141 325.468 324.219C324.444 323.251 324.227 323.157 321.934 322.274C319.546 321.211 318.136 320.694 316.199 320.083C314.695 319.604 313.135 319.312 311.01 318.983C309.027 318.579 307.025 318.241 305.239 318.401C303.951 318.513 302.701 319.012 299.683 319.059C297.408 319.096 293.686 318.946 291.599 318.72C289.512 318.495 289.051 318.231 288.6 317.724C286.494 315.327 285.122 313.287 282.894 311.689C279.876 309.527 277.62 309.066 275.533 308.568C273.682 308.126 271.209 307.205 266.594 307.28C264.356 307.318 260.925 307.468 258.914 307.722C256.319 308.051 253.837 308.342 251.45 309.903C249.983 310.862 248.319 311.642 245.574 311.961C245.537 311.961 245.433 311.905 245.433 311.905C243.469 309.969 242.19 309.621 237.753 307.853C236.165 306.782 235.319 304.911 234.369 302.655C233.542 300.69 232.705 298.688 230.966 297.015C228.889 295.013 226.463 293.715 223.935 292.521C220.861 291.064 218.915 289.645 217.853 288.225C215.051 284.493 213.886 283.206 213.359 281.523C212.908 280.066 212.024 276.898 209.646 275.187C206.807 273.147 203.724 274.727 200.34 272.376C199.616 271.878 199.597 270.572 199.447 269.603C199.202 268.015 198.883 265.834 199.24 261.895C199.757 256.161 200.434 252.466 200.866 251.686C201.214 251.066 202.812 250.032 205.491 247.794C208.631 245.172 210.53 243.451 211.15 243.386C211.808 243.32 212.57 243.489 214.393 243.451C218.135 243.386 221.509 243.075 223.314 243.592C226.501 244.495 228.25 246.149 229.998 248.321C232.179 251.019 234.153 253.021 235.253 253.359C235.704 253.5 235.986 253.529 236.324 253.388C237.086 253.077 237.537 252.645 237.744 252.213C237.988 251.696 239.004 250.436 238.007 248.415C236.24 244.815 233.89 242.06 232.508 240.678C231.822 239.992 231.267 239.353 231.06 238.215C230.44 234.841 229.829 230.357 231.276 229.398C232.94 228.298 234.087 228.505 237.631 225.854C239.088 224.763 240.555 223.673 241.899 222.451C243.356 221.135 242.999 219.64 242.999 217.826C242.999 216.67 242.952 215.504 242.999 214.348C243.234 211.753 243.422 210.061 244.136 208.604C245.603 207.326 250.322 206.987 253.715 203.979C254.937 202.898 257.964 200.163 259.797 195.519C261.442 191.373 262.975 187.585 263.379 185.009C263.98 181.08 263.351 177.339 264.272 176.239C265.597 174.678 266.8 173.24 267.9 172.375C269.273 171.285 271.068 169.94 272.384 169.546C273.804 169.123 275.665 168.784 277.103 168.7C279.557 168.559 281.813 167.985 284.276 167.186C286.729 166.387 290.602 166.491 293.14 161.565C294.55 158.829 295.979 155.06 293.874 152.08C291.514 148.733 290.424 147.323 287.368 145.199C285.676 144.024 284.013 143.055 282.461 140.856C280.375 137.876 278.842 135.244 275.759 133.787C273.87 132.894 272.224 131.784 267.835 131.719C265.005 131.672 260.051 131.766 257.24 131.907C254.43 132.048 253.781 132.273 253.208 132.33C251.318 132.518 246.016 133.185 244.343 137.998C243.591 140.17 241.335 141.796 241.466 145.547C241.617 149.701 243.516 152.221 243.685 154.834C243.779 156.291 244.428 158.923 242.585 160.211C240.367 161.762 238.214 162.42 236.418 161.847L236.146 161.725C234.726 161.085 233.429 160.211 232.292 159.149C227.526 154.674 221.256 149.053 218.06 146.947C216.264 145.067 209.618 144.86 205.877 134.012C204.504 130.026 204.692 127.188 205.407 125.449C206.478 122.835 208.264 121.049 210.398 118.831C212.683 116.462 219.676 112.109 220.034 105.087C220.193 101.91 220.381 98.7514 219.291 96.768C217.721 93.9008 212.382 87.001 208.17 86.0703C207.428 85.9105 206.14 85.6661 205.971 87.0762C205.482 91.1653 205.454 94.8127 204.335 95.9689C201.881 98.4976 199.851 100.265 197.633 101.186C196.655 101.59 193.496 101.553 188.956 101.835C182.573 102.239 177.394 101.431 172.872 100.773C169.525 100.284 164.759 100.199 160.21 98.4036C157.925 97.5012 156.384 95.1041 153.592 94.0701C151.383 93.2522 148.252 91.3815 143.693 90.5543C139.613 89.8211 136.662 89.5767 132.262 89.0033C128.483 88.5144 123.529 85.8165 114.439 88.599C109.88 89.9903 104.089 97.3696 98.5149 96.1945C94.6796 95.3767 91.6715 94.7657 90.3554 92.6788C88.1275 89.1349 85.7774 84.1527 83.3239 83.1186C81.7729 82.47 75.8976 81.3325 67.5219 82.3948C57.8959 83.6168 53.2897 83.551 50.8926 82.9588C47.6119 82.141 42.9117 82.6956 39.0482 84.1057C36.3409 85.0927 31.9133 86.1173 30.475 89.0126C29.0086 91.9644 28.7924 95.9313 29.582 101.026C30.1554 104.692 31.7065 106.751 30.8886 109.28C28.1343 117.834 18.6775 126.06 17.8879 129.622C17.3991 131.822 16.8821 133.73 17.4085 134.764C18.1605 136.268 19.392 137.387 20.7362 138.365C23.7161 140.527 27.0627 142.228 30.3152 143.939C31.5937 144.616 32.8721 145.283 34.16 145.941C34.8744 146.308 35.5888 146.675 36.3033 147.041C36.6793 147.229 37.0741 147.389 37.4313 147.624C38.0893 148.056 38.8696 148.16 39.6028 147.859C40.5992 147.455 41.3701 146.571 42.0657 145.791C43.7201 143.948 45.0268 141.768 46.3805 139.709C46.5403 139.474 46.6907 139.229 46.8505 138.994C48.8434 135.958 51.9267 132.865 54.3426 130.732C54.9254 130.224 56.3355 128.381 59.3248 126.135C62.2107 123.973 65.3034 125.637 68.9602 125.759C72.1375 125.862 78.0033 125.796 81.1431 125.759C85.1664 125.712 88.3437 126.191 91.7561 127.714C94.3694 128.88 95.3188 132.508 96.5221 134.398C97.6125 136.099 99.2388 136.926 101.156 138.28C103.958 140.264 107.238 142.755 109.476 144.917C111.29 146.665 112.371 147.643 113.65 149.288C115.943 152.221 118.848 153.64 120.061 155.295C120.38 156.366 121.019 157.889 121.856 159.29C122.223 159.816 122.674 175.825 122.834 177.79C123.003 179.914 123.642 181.7 123.905 183.994C124.789 191.608 125.353 194.757 125.513 199.693C125.654 203.989 125.569 211.932 125.616 216.181C125.673 220.75 125.889 221.502 126.096 222.517C126.791 225.873 131.003 228.345 132.939 230.225C135.073 232.303 136.248 235.724 138.344 240.274C139.801 243.433 143.195 247.804 146.259 250.878C147.886 252.513 148.243 255.099 149.794 258.097C151.345 261.105 154.974 262.807 157.549 264.574C158.048 264.912 158.508 264.95 158.941 264.264C160.181 262.29 160.125 259.93 159.862 258.812C159.382 256.8 156.29 255.86 154.306 254.422C151.73 252.551 148.6 245.736 146.654 242.07C145.498 239.889 144.408 238.112 143.928 235.818C143.327 232.961 143.975 230.3 144.295 228.918C144.586 227.659 145.573 226.879 146.429 226.343C147.199 225.863 148.14 226.014 148.948 226.343C150.527 226.973 153.366 230.282 158.189 233.609C160.445 235.17 163.96 236.928 166.273 238.422C169.356 240.425 170.277 243.019 171.462 244.57C172.834 246.375 174.461 248.368 175.795 252.316C176.171 253.5 176.388 254.149 176.604 254.788C176.717 255.108 177.431 255.954 177.535 257.251C177.535 257.251 177.431 261.528 177.535 263.23L177.657 266.435Z" stroke="#1F2937" stroke-width="3" stroke-linecap="round"/>
<path d="M124.187 72.8066C125.174 74.7337 126.208 76.7172 128.079 77.9392C131.604 80.2329 140.459 78.4563 149.728 78.7101C155.622 78.8699 157.897 84.7357 161.695 87.6498C164.656 89.9153 169.638 88.7309 172.787 89.3137C175.212 89.7649 177.431 89.0693 178.916 88.0822C182.723 85.5441 183.72 82.1224 184.058 79.9697C184.537 76.971 175.325 76.4822 171.236 75.9088C167.711 75.4105 163.875 73.5117 160.388 72.5998C157.493 71.8384 154.766 71.359 152.435 70.9454C149.681 70.4471 148.13 66.0666 145.404 63.7541C141.587 60.5015 135.552 62.9174 132.901 63.7447C129.432 64.8257 127.769 65.8974 126.359 66.8844C125.522 67.4672 125.4 68.4449 124.901 69.2627C124.112 70.5495 123.473 71.4034 124.187 72.8066Z" stroke="#1F2937" stroke-width="3" stroke-linecap="round"/>
<path d="M173.381 55.3882C172.892 53.5269 174.189 48.9865 175.59 45.922C177.009 42.8105 181.399 41.955 183.411 40.7236C186.87 38.5991 191.796 41.7388 193.441 42.4626C195.735 43.4685 198.48 43.1865 199.871 43.1865C200.454 43.1865 200.745 43.5907 200.754 44.3615C200.773 48.1123 198.301 50.0675 195.161 52.6996C192.623 54.8241 189.653 56.1496 187.03 58.4151C185.216 59.6559 184.398 60.8874 183.166 62.2786C182.856 62.5418 182.555 62.6452 181.925 62.4384C181.925 62.4384 173.691 56.582 173.39 55.3976L173.381 55.3882Z" stroke="#1F2937" stroke-width="3" stroke-linecap="round"/>
<path d="M193.082 69.3568C190.892 70.0618 188.871 72.2521 189.285 74.5458C189.416 75.2884 189.961 76.1721 190.864 76.8583C192.876 78.3906 195.113 78.4658 196.138 78.3906C196.824 78.3436 197.237 77.7889 197.66 77.2155C198.929 75.4952 198.008 72.5623 197.482 71.2275C196.673 69.1876 194.821 68.8022 193.073 69.3662L193.082 69.3568Z" stroke="#1F2937" stroke-width="3" stroke-linecap="round"/>
<path d="M202.323 60.4166C201.327 62.0616 200.838 64.3365 201.045 65.5586C201.111 65.9628 201.496 66.1696 201.797 66.32C204.175 67.5138 208.02 64.5809 208.133 64.0545C208.433 62.6444 207.193 60.3508 206.318 58.9313C206.177 58.7057 205.905 58.5929 205.566 58.5083C204.222 58.2075 203.113 59.1099 202.323 60.4072V60.4166Z" stroke="#1F2937" stroke-width="3" stroke-linecap="round"/>
<path d="M210.342 51.2707C210.53 52.5209 212.232 55.5948 215.23 60.7086C215.616 61.1692 215.766 61.3949 215.879 61.6205C216.067 62.0717 216.377 62.4571 216.866 62.7203C218.116 63.0587 220.57 64.5628 223.738 63.5099C226.238 62.6733 228.814 61.7615 231.587 61.3103C234.886 60.7744 237.669 60.2762 238.365 58.885C238.59 58.4337 238.6 54.1848 238.703 47.9805C238.741 45.6774 238.741 44.9724 239.051 44.399C239.662 43.2615 240.499 41.4191 242.247 40.338C243.535 39.5484 244.672 39.3792 245.622 39.5108C247.022 39.6988 251.901 41.0618 256.489 39.116C260.164 37.5649 263.106 36.2112 263.783 35.102C264.686 33.6167 265.983 30.2984 264.422 29.1516C263.699 28.6251 262.618 28.5687 260.474 28.1645C258.839 27.8637 255.765 26.04 252.146 26.04C248.047 26.04 244.926 26.0776 243.854 26.4255C242.679 26.8015 239.079 26.5759 234.36 27.3749C231.455 27.8637 230.271 28.3807 229.679 28.6251C228.203 29.2362 227.112 30.2514 222.205 35.149C219.855 37.4897 215.973 40.5918 214.224 42.6411C211.743 45.5458 209.769 47.5293 210.342 51.28V51.2707Z" stroke="#1F2937" stroke-width="3" stroke-linecap="round"/>
<path d="M263.915 123.625C263.662 123.616 263.408 123.625 263.079 123.55C261.8 123.287 260.578 122.535 259.46 121.896C257.279 120.646 255.117 119.236 253.152 117.666C250.454 115.513 248.189 112.655 247.408 109.299C246.478 105.323 247.615 100.848 245.622 97.2856C243.902 94.1929 240.151 92.6513 236.607 92.6607C234.53 92.6607 232.481 93.1119 230.422 93.3375C226.972 93.7041 223.146 93.2905 220.646 90.884C217.91 88.2331 217.572 84.0311 217.402 80.2239C217.365 79.2839 217.337 78.2593 217.882 77.4884C218.333 76.8398 219.094 76.5014 219.818 76.1912C222.761 74.9221 225.712 73.6625 228.673 72.4216C234.577 69.9399 240.725 67.477 247.136 67.6556C247.925 67.6744 248.734 67.7402 249.467 68.0411C250.567 68.4923 251.394 69.4135 252.184 70.3066C255.728 74.3393 259.281 78.3721 262.825 82.4048C263.981 83.7209 265.156 85.0463 266.613 86.024C268.832 87.5092 271.624 88.1015 273.551 89.9533C275.995 92.3034 276.39 96.3456 274.82 99.3537C273.485 101.929 270.9 103.913 270.421 106.78C269.932 109.628 271.708 112.354 273.541 114.582C274.801 116.124 276.221 117.807 276.174 119.79C276.136 121.313 275.196 122.704 273.983 123.635C272.771 124.566 271.304 125.083 269.847 125.524C268.616 125.9 267.403 125.778 266.294 125.12C265.749 124.801 265.42 124.133 264.856 123.851C264.498 123.672 264.216 123.635 263.934 123.625H263.915Z" stroke="#1F2937" stroke-width="3" stroke-linecap="round"/>
<path d="M226.032 113.595C224.904 113.773 223.795 114.29 222.902 114.967C221.952 115.682 220.749 116.603 220.288 117.74C219.132 120.645 221.031 124.114 222.112 126.05C222.62 126.962 223.268 127.15 223.917 127.376C224.556 127.601 226.079 126.831 227.912 125.449C229.595 124.189 229.952 122.093 230.554 119.809C231.174 117.411 230.431 115.531 230.037 115.043C228.984 113.717 227.499 113.369 226.032 113.604V113.595Z" stroke="#1F2937" stroke-width="3" stroke-linecap="round"/>
<path d="M394.157 58.4805C394.853 60.3605 395.032 62.0808 393.791 63.1806C393.274 63.6413 391.3 65.4649 389.232 69.9113C388.094 72.3742 389.617 76.125 389.899 78.6913C390.35 82.7334 389.288 85.3843 388.677 87.1986C388.301 88.3078 387.784 88.8249 387.305 89.2385C386.233 90.1597 384.428 90.1973 382.98 90.3101C381.458 90.4229 380.508 90.7519 379.963 91.0622C378.243 92.021 378.111 94.5309 376.908 95.4239C375.188 96.7118 373.129 97.6518 371.07 98.2722C369.237 98.8269 367.611 98.3004 365.797 98.6107C363.945 98.9303 362.582 99.4379 360.683 100.622C357.863 103.019 356.077 105.999 354.873 107.795C354.3 108.65 350.953 110.483 346.31 113.52C344.571 114.657 343.912 115.137 343.865 116.565C343.724 120.241 343.988 123.221 343.217 124.565C342.004 126.671 341.008 128.579 340.105 128.767C339.287 128.946 338.084 128.579 336.091 128.006C333.346 127.216 330.959 126.755 329.126 126.22C326.7 125.505 324.595 124.838 322.141 122.657C320.214 120.946 317.046 118.032 315.439 116.302C313.493 114.206 312.854 111.611 312.731 108.829C312.647 106.921 313.587 102.625 312.384 101.045C311.838 100.566 310.466 100.66 308.99 100.228C308.755 100.152 308.68 99.9549 308.652 95.4427C308.614 90.9306 308.736 82.3762 308.548 77.8546C308.341 72.8536 308.163 71.782 307.589 71.077C306.696 69.9771 304.798 68.1722 303.303 66.5836C302.241 65.4555 300.351 63.3498 298.264 61.545C297.23 60.6519 296.892 59.1197 291.12 55.6039C289.278 54.4853 288.309 54.3349 287.595 54.2409C286.805 54.1375 283.111 53.9683 277.659 54.1375C275.403 54.2033 274.105 54.3067 273.005 54.5511C269.584 55.3031 267.732 56.3372 264.366 55.0587C263.549 54.7485 263.032 54.2221 262.938 53.5829C262.731 52.2856 262.204 48.4032 266.03 45.6489C267.722 44.4363 269.744 43.7125 271.689 43.0356C274.585 42.0298 276.418 41.7478 278.523 39.3789C281.118 36.4554 283.797 33.6165 286.392 30.6835C288.384 28.418 289.259 26.9516 290.547 26.6602C293.207 26.0679 294.974 27.6002 298.828 29.2265C301.169 30.2135 304.967 29.2359 309.291 28.4274C315.881 27.196 319.171 26.9516 321.417 26.7542C322.95 26.6226 323.946 25.1373 324.99 24.2349C326.794 22.6744 329.84 20.0047 331.372 18.6134C332.839 17.2786 334.898 17.2316 339.269 17.1846C340.622 17.1658 345.059 17.4196 351.48 17.3726C354.422 17.3538 358.013 17.1376 362.873 17.5606C366.915 17.9178 367.188 21.4148 368.429 22.5146C368.964 22.9846 370.516 23.511 372.847 24.2255C374.887 24.8553 380.01 25.1373 386.44 25.0903C389.006 25.0715 392.033 24.8553 396.545 24.8083C402.975 24.7425 409.668 24.7613 410.007 25.9363C410.777 28.6625 409.198 31.0407 409.433 32.0372C409.687 33.0994 406.275 34.8479 400.945 36.7468C397.194 38.091 394.722 38.2884 393.293 38.4294C392.334 38.5234 391.948 39.4259 391.619 40.0933C390.755 41.823 390.717 45.2165 390.52 49.7005C390.426 51.7498 393.011 55.3501 394.167 58.4711L394.157 58.4805Z" stroke="#1F2937" stroke-width="3" stroke-linecap="round"/>
<path d="M392.963 106.037C390.876 106.733 389.015 108.171 386.89 109.732C386.298 110.164 384.672 111.02 384.474 111.819C383.713 114.845 386.317 119.066 386.946 119.546C387.473 119.94 388.845 119.461 391.694 118.916C396.384 118.032 399.787 117.863 400.586 117.675C401.179 117.534 401.761 117.421 402.307 117.045C403.576 116.152 403.867 113.304 403.679 110.784C403.472 108.04 401.329 107.062 398.979 106.235C396.629 105.398 394.711 105.464 392.963 106.047V106.037Z" stroke="#1F2937" stroke-width="3" stroke-linecap="round"/>
<path d="M436.535 158.698C437.099 157.889 436.62 157.833 436.159 157.767C432.963 157.316 429.833 153.537 429.24 151.45C428.385 148.423 428.799 142.351 428.197 136.391C428.122 135.639 428.78 135.789 429.043 136.043C430.293 137.274 431.13 139.427 431.854 141.129C432.061 141.608 431.92 142.294 432.239 142.689C433.941 144.785 437.259 144.127 438.237 144.842C441.583 147.267 441.282 153.095 443.322 155.991C444.469 157.617 446.387 158.209 446.979 159.375C447.346 160.099 447.176 161.321 446.923 162.044C446.161 164.188 443.407 164.592 440.803 165.635C435.868 167.609 433.762 168.634 430.951 169.809C429.974 170.213 429.052 170.336 428.084 170.27C427.624 170.242 427.238 170.072 426.909 169.753C426.176 169.029 425.931 167.995 425.8 167.215C425.734 166.829 425.931 166.434 426.185 166.105C426.449 165.776 426.834 165.523 427.483 165.382C428.131 165.25 429.955 165.25 429.974 165.25C429.974 165.25 434.787 161.227 436.545 158.679L436.535 158.698Z" stroke="#1F2937" stroke-width="3" stroke-linecap="round"/>
<path d="M419.603 153.65C419.406 153.819 419.236 154.017 419.048 154.299C418.578 155.013 418.127 155.737 417.732 156.489C417.074 157.749 416.52 159.121 416.379 160.55C416.172 162.571 417.046 163.925 417.516 164.508C418.202 165.335 419.246 165.175 421.182 165.072C422.132 165.025 422.715 164.761 423.316 164.141C423.796 163.643 424.454 162.609 425.102 161.481C426.437 159.168 427.011 157.589 427.095 157.11C427.302 155.906 426.146 154.647 425.431 153.819C424.463 152.701 423.645 151.479 422.028 152.306C421.53 152.56 421.051 152.861 420.543 153.096C420.139 153.274 419.847 153.434 419.594 153.65H419.603Z" stroke="#1F2937" stroke-width="3" stroke-linecap="round"/>
<path d="M487.512 150.952C488.405 150.482 489.289 149.956 490.398 149.561C492.918 148.668 495.55 147.606 497.693 145.979C503.126 141.862 500.043 128.984 501.19 125.618C502.779 120.946 507.498 118.324 508.184 115.447C508.428 114.413 508.259 112.881 507.958 112.035C507.451 111.471 506.332 110.437 505.448 109.638C504.706 108.961 503.625 108.801 502.713 109.215C495.813 112.345 492.156 114.347 491.865 115.127C491.705 115.569 491.348 115.964 491.084 119.339C490.821 122.714 490.614 129.04 490.455 132.452C490.295 135.865 490.191 136.175 489.674 136.748C486.817 139.907 484.438 141.307 482.972 141.73C480.528 142.436 478.573 140.894 475.856 141.73C473.882 142.332 471.776 142.464 469.52 142.003C466.239 141.317 464.651 139.023 462.244 136.983C459.631 134.765 457.422 132.424 456.378 130.751C455.636 129.557 455.325 128.128 455.993 125.317C457.346 119.64 461.595 116.5 463.523 114.422C466.954 110.719 468.608 106.874 469.501 105.304C470.422 103.678 471.325 101.224 474.295 97.7837C478.742 92.6323 482.737 89.3892 484.307 88.0825C485.811 86.8323 487.757 84.783 490.68 82.8465C495.85 79.4248 500.851 81.0041 502.891 81.0041C506.482 81.0041 509.227 84.031 510.91 84.9334C513.316 86.2119 519.981 87.3869 523.525 88.1766C526.082 88.75 527.661 89.9062 531.374 91.6265C533.151 92.4537 534.571 93.563 536.197 94.3526C536.563 94.5312 536.874 94.6158 537.193 94.7756C537.513 94.9354 537.823 95.1422 537.616 96.0259C537.419 96.9095 536.686 98.4606 535.746 99.269C532.897 101.685 530.914 99.6544 530.237 99.598C529.419 99.5322 528.714 100.378 528.197 101.055C527.934 101.393 527.878 101.835 528.037 102.258C528.893 104.59 531.544 106.441 532.954 108.745C533.48 109.609 533.743 110.324 534.42 110.737C536.253 111.471 540.624 111.687 545.55 111.941C547.637 111.997 554.161 111.612 554.161 111.612C558.711 110.7 561.616 109.666 562.593 108.632C563.298 107.889 563.571 107.024 564.088 105.539C564.445 104.496 565.169 102.916 570.179 102.155C575.19 101.393 584.515 101.506 589.713 101.506C598.136 101.506 602.263 99.786 603.814 98.6956C605.966 97.1821 606.286 92.6887 608.458 89.455C609.698 87.6125 613.383 88.186 616.495 87.8945C620.866 87.7253 624.072 87.4903 628.368 87.2083C630.37 87.1519 636.273 86.2495 636.273 86.2495C638.464 85.5162 642.882 81.1263 648.4 74.7716C655.469 66.6403 662.256 56.0273 666.486 54.1754C670.34 52.4833 674.965 53.79 683.614 54.0814C693.738 54.4104 705.404 53.9874 706.503 54.9932C709.436 57.6723 710.376 61.7145 713.046 64.4876C715.274 66.8001 718.846 68.7272 721.807 70.203C723.885 71.2371 726.968 71.3123 729.816 71.4063C731.762 71.6789 740.909 71.8669 755.179 72.1395C761.054 72.4121 766.901 73.7846 766.901 73.7846C769.646 76.4167 771.018 77.7891 771.77 79.6786C772.193 80.7503 772.635 81.6903 774.28 82.9969C778.022 85.9675 784.066 87.1895 789.105 86.9075C794.641 86.5973 799.548 83.2978 804.465 82.4423C811.966 81.1263 818.124 82.1509 820.126 82.2637C825.211 82.5551 830.964 81.8125 835.251 81.7467C838.024 81.7091 840.468 83.2884 842.254 83.8618C844.266 84.5104 848.581 86.3811 854.447 89.1824C859.137 89.9344 865.003 90.0472 866.545 90.2258C867.297 90.2822 869.44 90.489 872.195 90.489C874.949 90.489 879.376 90.489 882.563 90.7053C889.99 91.2129 891.465 92.5007 893.618 94.033C896.401 96.0165 897.435 98.5546 897.923 100.04C898.431 101.619 896.053 104.674 892.64 108.444C888.457 113.059 886.229 114.855 884.688 117.055C884.077 117.919 883.202 118.681 881.792 119.762C879.414 121.585 877.261 123.682 875.316 125.957C872.965 128.72 869.967 130.553 867.805 131.823C866.62 132.518 865.689 134.229 864.768 137.98C864.204 140.302 864.458 143.648 864.242 146.515C863.603 154.976 862.973 157.561 862.841 159.055C862.634 161.33 860.087 164.733 855.669 169.96C853.29 172.771 851.147 175.873 849.784 178.044C847.707 181.334 844.745 169.151 844.257 166.397C843.805 163.868 843.946 162.214 843.429 161.998C842.283 161.518 841.324 161.34 840.882 160.813C838.748 158.266 842.189 152.748 842.931 149.862C843.824 146.402 845.855 142.595 847.443 139.644C848.111 138.393 848.844 137.312 849.117 136.353C849.511 134.906 848.073 133.289 847.631 131.832C847.255 130.591 846.231 129.247 845.573 128.147C845.103 127.357 843.777 127.489 842.818 127.357C840.722 127.066 838.964 129.143 835.411 131.08C832.901 132.452 830.889 132.133 823.369 132.274C820.878 132.321 819.139 131.879 815.209 131.832C810.857 131.785 806.176 132.659 802.886 133.627C801.1 134.154 800.103 134.417 799.144 135.244C796.644 137.397 796.334 140.189 795.591 143.131C795.121 144.983 795.807 147.643 797.076 150.059C798.261 151.77 799.144 153.349 799.924 154.487C800.103 154.835 801.833 160.221 802.143 162.881C802.453 165.542 802.453 168.362 802.115 170.919C801.466 175.75 799.924 178.561 799.116 179.605C797.913 181.156 796.315 183.562 794.735 185.376C793.777 186.486 791.934 187.031 790.891 187.651C789.763 188.319 788.851 189.569 787.281 190.8C785.73 192.013 783.624 191.881 781.321 191.609C778.482 191.28 776.48 192.944 774.017 195.059C772.381 196.459 771.554 198.716 770.595 201.235C770.097 202.852 769.561 205.136 769.289 206.837C769.016 208.548 769.148 209.94 769.148 209.94C769.552 213.559 769.636 214.461 769.796 215.711C769.843 216.069 769.824 216.426 769.025 216.764C768.226 217.103 766.628 217.413 765.256 217.037C763.883 216.661 762.774 215.599 761.956 214.63C759.55 211.773 759.437 209.676 759.127 208.727C758.826 207.834 756.899 207.608 755.066 207.467C753.233 207.336 751.748 207.016 750.695 206.461C750.065 206.132 749.021 206.255 747.79 206.791C746.662 207.279 745.355 209.423 743.832 211.791C742.676 213.587 742.573 216.322 742.902 217.422C743.372 218.983 744.801 218.879 745.496 219.481C746.192 220.177 751.597 223.636 752.18 224.849C753.026 226.588 753.957 227.885 755.273 229.859C756.344 231.466 758.102 234.381 758.958 236.148C759.813 237.915 759.672 238.47 759.465 240.237C758.911 244.965 758.422 248.509 757.933 249.553C757.416 250.671 757.096 251.997 756.297 253.172C754.474 255.879 750.478 256.246 748.909 256.942C747.48 257.571 744.152 260.062 742.46 261.82C742.046 262.243 739.696 264.105 735.692 266.511C732.787 268.25 731.386 268.861 727.391 269.35C723.058 269.876 720.303 271.446 719.194 271.55C717.239 271.728 715.565 272.283 714.729 272.734C713.441 273.43 713.262 275.968 713.018 277.406C712.708 279.23 715.481 282.652 717.06 285.904C718.639 289.157 717.276 292.061 716.205 294.646C715.838 295.539 714.842 295.868 714.033 295.351C711.523 293.744 709.136 290.792 706.522 288.959C705.413 288.179 704.915 287.427 703.279 286.383C701.643 285.34 698.955 283.958 696.849 283.075C693.371 281.617 690.767 280.734 688.991 279.343C686.828 277.651 685.747 275.648 684.554 274.248C684.168 273.787 683.651 273.543 678.406 271.813C676.356 271.136 675.492 270.553 674.458 270.243C669.654 269.162 666.655 269.369 665.02 269.952C664.277 270.337 658.768 275.441 656.644 277.284C652.677 280.734 650.947 282.999 650.383 283.272C649.829 283.535 649.208 284.804 648.541 286.487C648.165 287.436 648.118 289.852 647.845 293.462C647.563 297.26 645.298 299.732 644.019 300.926C643.004 301.875 640.353 301.678 638.934 301.716C636.471 301.781 635.173 298.444 634.29 296.263C633.716 294.853 630.718 293.133 627.879 290.003C626.027 287.963 624.983 283.855 624.137 281.806C623.959 281.373 623.78 281.138 623.592 280.988C622.878 280.395 621.609 281.016 620.105 281.439C619.099 281.721 618.178 281.74 617.51 281.589C617.2 281.523 616.965 281.382 616.786 281.11C616.363 280.489 616.363 279.333 616.786 277.951C617.839 274.483 621.12 274.266 622.154 273.543C622.398 273.373 622.511 272.941 622.549 272.518C622.69 270.647 621.317 269.388 620.114 267.545C619.24 266.201 618.065 265.157 617.162 263.87C616.645 263.118 616.551 262.215 616.194 261.519C615.113 259.433 612.519 260.279 611.343 259.978C610.375 259.733 609.501 259.621 608.392 259.348C608.063 259.254 607.706 259.141 605.374 259.104C603.043 259.075 595.429 259.028 595.429 259.028C588.482 256.866 587.26 255.945 586.244 255.428C585.718 255.155 584.881 254.554 582.202 253.586C580.106 252.824 576.205 252.505 573.958 252.147C571.138 251.687 570.066 251.066 568.957 249.91C567.434 248.321 566.663 246.742 565.996 246.3C565.47 245.952 564.915 245.858 564.379 245.783C563.796 245.699 562.659 247.541 561.296 250.728C560.704 252.11 560.497 253.097 562.142 254.385C563.796 255.672 567.359 257.252 569.427 258.117C571.918 259.16 572.783 259.292 573.958 259.724C576.092 260.514 578.226 261.397 580.209 261.736C584.364 262.018 585.286 262.225 585.699 262.61C585.906 262.892 586.188 264.725 586.188 264.725C586.188 269.905 585.483 274.765 583.866 278.722C583.114 280.555 581.855 281.74 579.683 283.244C574.522 286.825 570.583 288.414 569.841 288.696C569.183 288.94 568.064 291.328 565.77 295.163C563.608 298.792 558.946 297.767 557.282 297.73C554.34 297.664 551.971 297.373 549.075 296.348C546.96 295.596 544.92 292.09 542.89 289.185C539.816 284.776 541.339 281.928 541.217 279.474C541.094 277.021 540.079 273.533 538.256 270.205C536.751 267.461 534.928 265.289 534.364 259.837C534.129 257.562 533.095 256.49 531.91 254.873C529.682 251.828 530.246 248.97 528.94 246.714C528.028 245.144 525.969 245.003 525.02 245.078C524.343 245.135 522.886 247.128 520.827 250.248C517.772 254.883 519.699 258.784 520.338 260.363C521.156 262.403 523.976 264.96 526.317 266.539C527.68 267.461 528.893 270.328 530.237 274.633C531.685 279.258 532.23 282.153 532.86 283.291C533.997 285.359 534.608 287.22 535.238 288.17C537.513 291.582 538.096 297.194 539.12 299.347C540.418 302.073 544.582 301.65 546.293 302.834C548.211 304.169 549.104 305.372 550.26 306.247C551.275 307.017 553.776 307.281 558.57 306.923C560.036 306.811 562.415 306.726 565.93 305.861C571.251 304.554 571.937 301.979 572.492 301.377C572.783 301.067 573.206 300.86 573.639 301.095C574.795 301.706 575.265 303.464 575.66 304.846C576.026 306.124 575.979 307.271 575.237 310.336C574.597 312.958 572.999 317.64 572.116 320.3C571.063 323.459 569.578 325.329 567.557 327.858C565.206 330.8 561.747 331.28 559.82 332.154C558.654 332.68 557.131 333.573 555.505 334.73C552.723 336.704 550.636 342.288 548.22 343.886C546.594 344.967 545.09 345.155 544.685 345.86C542.345 350.024 543.924 356.623 546.236 360.421C549.498 365.779 549.169 372.162 547.976 378.921C546.518 387.146 541.809 388.481 539.769 390.765C535.868 395.146 536.075 399.038 535.435 401.454C534.608 404.593 533.781 407.169 532.7 413.016C531.92 417.209 531.233 419.389 529.908 424.212C528.545 429.166 523.234 430.839 518.468 432.625C514.35 434.167 512.292 435.173 509.302 435.868C506.181 436.592 503.888 437.974 502.675 438.096C500.052 438.378 494.121 433.669 488.18 430.153C486.723 429.297 483.799 429.062 479.672 428.31C473.036 427.098 473.609 419.277 471.767 416.363C470.216 413.909 470.676 406.859 470.808 398.906C470.883 393.952 470.808 388.143 471.25 383.978C471.503 381.656 469.426 377.445 466.756 371.419C465.403 368.355 466.352 364.51 466.484 360.552C466.756 352.44 466.23 347.777 465.92 346.64C465.403 344.769 465.346 339.167 465.224 332.107C465.121 326.1 458.117 321.72 456.764 319.087C456.538 318.655 456.322 318.138 455.936 317.753C453.793 315.581 448.943 316.606 442.541 315.647C436.609 314.763 433.31 315.572 430.433 316.343C426.645 317.348 422.358 320.027 419.933 320.356C418.166 320.591 415.863 320.554 413.456 319.858C408.643 318.476 407.976 314.199 406.575 311.718C405.353 309.565 401.771 304.047 397.231 296.461C395.671 293.857 394.242 292.945 391.375 290.726C388.019 288.123 387.624 282.924 387.041 276.88C386.928 275.761 388.461 273.684 389.025 272.762C389.899 271.333 390.914 269.98 392.042 268.739C393.339 267.31 395.107 266.455 396.564 265.214C398.331 263.7 397.908 261.717 398.077 259.517C398.35 256.048 398.632 252.401 399.779 249.092C401.142 245.2 409.517 242.38 412.544 238.921C414.424 236.778 414.001 233.337 414.453 232.501C415.769 230.075 425.395 230.583 433.084 228.985C436.346 228.308 438.442 227.528 440.435 225.469C442.635 223.194 443.942 221.258 446.621 219.735C449.685 217.986 454.009 218.663 458.691 220.938C467.988 225.469 467.8 236.063 470.084 239.438C470.874 240.604 472.829 241.28 475.047 242.192C478.808 243.753 483.686 239.006 486.666 236.251C489.74 233.422 495.446 232.877 497.9 232.425C501.97 231.673 508.127 232.566 512.263 234.559C515.347 236.044 517.462 237.314 519.304 237.925C522.087 238.855 526.787 238.084 529.156 237.088C533.161 235.424 532.907 229.239 533.753 224.867C534.025 223.439 533.076 222.188 532.079 221.192C528.874 217.977 518.731 218.983 515.272 217.676C514.726 217.469 514.275 217.14 513.899 216.304C512.931 214.207 513.053 211.792 513.58 209.742C514.792 205.061 518.684 203.547 521.222 201.865C523.177 200.567 530.416 200.793 535.125 201.395C538.857 201.874 541.922 203.839 545.964 203.613C547.12 203.547 548.323 203.538 549.104 203.237C554.631 201.075 550.344 188.413 549.809 187.576C548.342 185.264 544.855 183.534 542.025 182.528C540.23 181.889 538.575 182.303 537.513 182.594C533.649 183.684 527.633 189.898 522.689 190.246C521.495 190.33 521.457 188.413 520.855 187.727C518.731 185.32 514.285 189.174 511.004 192.822C504.442 200.116 506.633 205.051 503.822 208.868C502.694 210.4 501.162 212.666 500.005 213.681C498.849 214.696 498.088 214.395 497.552 213.935C495.343 212.064 493.049 206.48 492.118 196.995C491.949 195.294 491.667 194.833 491.131 194.297C488.039 191.195 483.263 189.635 481.346 187.952C480.49 187.2 479.738 186.269 478.375 185.809C476.777 185.273 474.859 186.26 473.252 187.322C472.556 187.783 472.105 188.084 472.171 188.62C472.566 191.665 476.053 192.671 479.259 196.779C484.1 202.983 485.378 204.892 486.149 206.96C487.221 209.808 484.626 211.773 483.94 213.22C483.658 213.822 483.104 213.916 482.417 213.69C478.009 212.252 476.232 206.283 474.389 204.751C472.143 202.88 469.059 200.483 465.525 196.582C464.82 195.801 464.604 195.275 463.466 195.04C457.694 193.856 454.827 195.867 451.622 198.011C448.538 200.06 445.361 203.35 443.284 207.176C442.353 208.896 441.676 211.002 440.228 212.985C437.662 216.501 434.494 215.749 428.252 216.661C426.419 216.934 424.746 216.821 423.28 215.834C416.85 211.509 418.438 202.946 419.125 198.114C419.642 194.429 426.203 193.301 431.26 191.759C434.795 190.688 436.769 193.282 438.912 193.057C444.534 192.474 440.144 179.68 444.148 175.064C447.871 170.778 455.579 163.032 461.36 158.83C469.915 152.616 476.034 153.707 478.403 153.171C480.612 152.785 483.066 152.325 485.36 151.798C486.177 151.591 486.873 151.272 487.559 150.915L487.512 150.952Z" stroke="#1F2937" stroke-width="3" stroke-linecap="round"/>
<path d="M463.475 145.349C463.446 145.415 463.418 145.481 463.409 145.547C463.287 146.261 464.283 147.841 464.593 148.47C464.894 149.072 465.702 149.335 466.313 149.251C467.573 149.081 468.043 147.709 468.259 146.929C468.353 146.572 468.56 146.327 468.391 145.932C467.714 145.03 466.586 144.419 465.383 144.334C464.753 144.287 463.747 144.767 463.475 145.34V145.349Z" stroke="#1F2937" stroke-width="3" stroke-linecap="round"/>
<path d="M461.117 205.314C460.835 205.718 460.713 206.217 460.76 206.705C461.042 209.544 461.784 210.804 462.076 211.152C462.781 211.979 465.648 210.889 467.415 210.08C467.848 209.883 468.036 209.008 468.167 207.909C468.28 206.978 467.716 205.464 466.889 203.782C466.334 202.644 464.924 202.832 464.182 202.889C463.213 203.312 462.461 203.857 461.766 204.468C461.653 204.562 461.371 204.957 461.117 205.314Z" stroke="#1F2937" stroke-width="3" stroke-linecap="round"/>
<path d="M564.324 396.678C566.514 388.283 568.92 385.275 570.471 383.574C571.073 382.916 572.022 381.769 573.367 380.528C573.893 380.039 574.222 379.973 574.673 380.218C575.125 380.462 575.717 381.054 576.027 381.562C576.337 382.07 576.337 382.464 576.13 385.388C575.933 388.321 575.538 393.764 575.228 396.969C574.852 400.983 574.523 402.374 574.673 404.067C574.908 406.774 576.121 409.876 576.92 412.47C577.249 413.542 576.535 414.275 575.341 414.783C572.408 416.024 567.247 415.892 562.349 415.742C560.516 415.685 560.028 415.291 559.37 414.445C556.239 410.374 556.813 406.294 557.452 404.33C558.232 401.97 559.699 399.677 560.808 398.125C561.503 397.383 562.406 396.772 563.308 396.424C563.713 396.274 564.013 396.17 564.615 396.067" stroke="#1F2937" stroke-width="3" stroke-linecap="round"/>
<path d="M776.132 233.253C782.938 225.892 787.741 221.728 789.969 221.126C792.282 220.506 797.283 217.845 800.3 214.677C802.34 212.525 800.949 208.078 801.372 204.741C801.738 201.789 801.795 199.609 802.349 198.405C802.575 197.907 802.904 197.747 803.186 197.606C803.468 197.465 803.741 197.371 804.211 197.926C806.862 201.075 806.721 203.594 807.332 205.409C808.046 207.543 808.403 209.639 808.178 217.93C808.103 220.769 807.021 222 805.621 223.213C803.694 224.896 800.422 224.238 797.029 224.379C794.594 224.482 792.799 225.629 790.702 227.208C787.901 229.314 787.393 232.698 785.495 235.706C784.16 237.831 781.64 238 780.146 238.225C778.125 238.536 776.893 237.99 775.822 237.718C775.211 236.89 775.023 236.044 775.164 235.029C775.284 234.394 775.893 233.896 776.132 233.253Z" stroke="#1F2937" stroke-width="3" stroke-linecap="round"/>
<path d="M809.55 194.203C809.992 194.974 810.81 195.143 811.506 195.284C814.326 195.848 816.3 189.202 816.112 188.732C815.633 187.529 813.611 188.083 811.242 188.591C809.795 188.92 808.77 189.192 808.31 189.794C808.122 190.123 808.028 190.49 807.934 190.866C807.934 190.866 808.864 193 809.56 194.203H809.55Z" stroke="#1F2937" stroke-width="3" stroke-linecap="round"/>
<path d="M725.435 337.08C728.509 338.424 739.273 335.698 745.543 332.379C746.85 331.693 747.122 329.898 747.62 327.914C748.955 322.594 744.819 318.476 743.08 313.193C742.347 310.975 743.484 308.22 742.92 306.726C739.329 297.166 729.788 321.08 726.366 323.684C725.783 323.769 725.125 323.769 724.542 323.853C724.279 323.891 724.025 323.947 723.743 324.013C723.02 324.173 722.549 324.859 722.653 325.592C723.123 328.77 724.383 336.638 725.435 337.098V337.08Z" stroke="#1F2937" stroke-width="3" stroke-linecap="round"/>
<path d="M734.813 424.776C733.995 424.7 733.782 424.71 732.908 423.215C730.436 418.966 729.938 414.04 730.398 411.427C730.643 410.026 732.823 408.579 736.64 406.492C743.822 402.572 749.528 403.803 753.326 403.117C756.653 402.516 755.488 395.024 757.847 389.092C760.649 382.079 763.14 377.454 763.835 377.05C764.174 376.853 764.531 376.759 764.935 376.815C766.768 377.069 768.122 380.34 769.927 381.919C770.961 382.822 772.427 382.906 773.64 382.85C776.441 382.718 778.688 380.82 781.997 377.407C782.749 376.627 783.219 376.298 783.745 376.119C784.272 375.941 784.845 375.941 785.372 376.176C788.493 377.539 790.645 383.358 793.324 386.159C794.951 387.86 797.846 388.829 801.221 391.151C802.123 391.771 803.185 392.194 804.003 392.203C804.821 392.203 805.394 391.752 805.695 391.057C806.974 388.058 805.188 385.247 804.37 381.825C804.191 381.073 804.248 380.603 804.426 380.19C804.595 379.785 804.943 379.438 806.381 380.18C807.829 380.923 810.358 382.765 811.711 385.031C814.353 389.43 813.761 394.394 814.748 397.298C815.415 399.254 818.16 401.021 823.246 404.085C831.01 408.767 837.45 410.205 838.841 411.183C841.144 412.818 840.824 417.039 840.251 419.887C839.367 424.268 836.651 425.528 834.103 429.927C830.907 435.426 832.007 437.729 831.424 438.594C829.243 441.875 823.763 440.634 822.597 441.151C820.369 442.148 820.961 447.929 821.253 451.482C821.366 452.93 821.084 454.678 820.679 456.417C820.435 457.48 819.58 458.279 818.188 459.04C815.547 460.469 811.58 460.497 803.984 460.497C802.048 460.497 800.553 460.149 799.331 459.454C796.868 458.062 795.656 454.584 794.669 450.476C793.512 445.654 793.447 442.495 792.751 441.856C792.112 441.273 791.36 440.982 790.26 440.926C786.753 440.738 785.212 442.608 779.995 445.156C774.862 447.666 769.654 440.54 767.031 438.087C766.195 437.306 765.227 437.156 764.249 436.977C759.398 436.113 754.087 440.86 751.596 441.79C748.146 443.078 745.035 445.278 742.59 445.569C741.434 445.701 740.381 445.4 739.451 444.874C738.52 444.234 737.825 443.304 737.477 442.148C737.354 441.565 737.016 424.954 735.164 424.776H734.813Z" stroke="#1F2937" stroke-width="3" stroke-linecap="round"/>
<path d="M879.422 464.53C876.16 466.241 872.908 467.952 870.859 470.255C868.819 472.558 868.076 475.415 867.7 477.493C867.108 480.764 867.653 483.359 868.264 485.37C868.49 486.104 868.8 486.16 869.167 486.245C870.022 486.433 871.263 486.414 872.739 486.169C874.252 485.916 876.518 483.716 879.469 479.984C882.431 476.243 883.606 472.934 884.019 471.204C884.536 469.014 884.188 466.682 883.568 465.357C883.117 464.389 881.885 464.37 881.349 464.116C881.058 464.032 879.681 464.398 879.681 464.398L879.422 464.53Z" stroke="#1F2937" stroke-width="3" stroke-linecap="round"/>
<path d="M894.388 461.493C894.886 461.493 895.29 461.418 895.788 460.553C896.277 459.698 896.851 458.072 896.86 456.906C896.86 455.74 896.296 455.092 895.76 454.669C894.83 453.945 893.495 453.672 891.981 453.465C890.383 453.832 889.293 454.33 888.888 454.697C888.794 454.81 888.691 455.139 888.597 455.486C888.465 455.985 888.578 456.52 888.888 456.934C889.81 458.156 891.859 460.788 892.743 461.192C893.434 461.66 893.628 461.493 894.388 461.493Z" stroke="#1F2937" stroke-width="3" stroke-linecap="round"/>
<path d="M812.54 470.95C813.846 472.821 815.144 474.701 816.591 474.362C818.039 474.024 819.581 471.42 820.22 469.916C820.85 468.412 820.53 468.083 819.101 468.12C817.672 468.158 815.144 468.562 813.809 468.938C812.465 469.314 812.389 469.634 812.305 469.972V470.508L812.54 470.95Z" stroke="#1F2937" stroke-width="3" stroke-linecap="round"/>
<path d="M721.977 351.998C730.681 363.936 734.018 365.609 736.058 366.032C737.121 366.258 739.395 366.446 742.018 366.39C743.005 366.371 743.221 365.741 743.231 365.262C743.25 362.752 740.495 360.129 737.816 356.792C733.652 351.593 729.29 350.353 725.746 348.426C724.665 347.833 723.65 347.589 722.7 347.589C721.638 347.589 721.027 348.783 720.604 349.497C720.397 349.845 720.303 350.212 720.426 350.456C720.538 350.7 721.977 352.007 721.977 352.007V351.998Z" stroke="#1F2937" stroke-width="3" stroke-linecap="round"/>
<path d="M695.007 324.427C692.929 323.308 690.353 318.486 687.317 313.052C685.898 310.524 685.446 308.907 685.625 306.998C685.691 306.256 686.161 306.03 686.518 305.852C687.214 305.504 690.316 308.032 696.388 314.632C699.923 318.476 703.645 323.947 705.77 327.049C709.333 332.229 708.618 336.581 709.445 339.571C709.737 340.605 710.282 341.253 710.348 341.968C710.376 342.334 710.057 342.682 709.041 342.861C708.035 343.049 706.259 343.049 705.225 342.861C703.476 341.488 702.762 340.172 702.405 339.223C702.282 338.631 696.558 325.245 695.007 324.417V324.427Z" stroke="#1F2937" stroke-width="3" stroke-linecap="round"/>
<path d="M715.472 311.106C718.583 308.568 710.047 301.49 709.154 301.668C707.331 302.026 706.588 304.817 706.344 307.092C706.945 309.48 707.293 312.112 708.008 312.469C708.365 312.592 710.367 313.475 710.734 312.751C710.734 312.751 714.814 311.633 715.472 311.097V311.106Z" stroke="#1F2937" stroke-width="3" stroke-linecap="round"/>
<path d="M748.016 347.815C748.853 351.171 755.649 353.079 757.435 352.966C758.168 352.919 758.516 352.609 758.817 352.252C760.284 350.503 759.127 347.006 758.112 343.726C757.341 342.767 756.223 341.846 755.282 341.188C754.342 340.53 753.045 340.68 752.274 341.545C750.582 343.453 747.762 346.818 748.016 347.824V347.815Z" stroke="#1F2937" stroke-width="3" stroke-linecap="round"/>
<path d="M772.382 339.655C773.096 340.783 780.024 342.842 792.555 345.916C793.269 349.939 793.269 353.84 793.335 356.209C793.401 358.587 793.514 359.415 793.692 360.073C794.595 362.404 794.755 366.277 797.462 366.756C799.135 367.057 800.846 367.076 802.059 366.145C805.584 363.447 807.671 359.969 809.692 359.405C810.115 359.292 810.472 359.405 810.829 359.471C812.39 359.772 819.017 364.181 821.452 361.558C821.564 361.436 821.179 361.229 820.784 360.778C819.054 358.804 817.522 356.82 816.31 354.865L816.197 354.686C814.091 351.302 812.314 348.444 810.34 347.645C807.821 346.63 804.174 346.931 801.974 344.769C798.637 341.488 797.377 339.815 795.77 338.865C793.73 337.662 790.402 336.045 785.702 335.885C778.896 335.65 773.444 335.885 772.551 337.455C772.137 338.179 771.673 338.781 772.049 339.373L772.382 339.655Z" stroke="#1F2937" stroke-width="3" stroke-linecap="round"/>
<path d="M754.943 311.877C756.494 315.327 757.688 317.601 758.224 318.147C760.555 320.487 764.372 311.529 764.316 310.814C763.667 310.1 760.931 309.733 757.293 309.968C755.902 310.203 755.423 310.683 754.943 311.519" stroke="#1F2937" stroke-width="3" stroke-linecap="round"/>
<g clip-path="url(#clip0_716_725)">
<path d="M239.518 175.967C236.865 175.967 234.322 177.02 232.447 178.896C230.571 180.771 229.518 183.315 229.518 185.967C229.518 194.967 239.518 201.967 239.518 201.967C239.518 201.967 249.518 194.967 249.518 185.967C249.518 183.315 248.464 180.771 246.589 178.896C244.713 177.02 242.17 175.967 239.518 175.967ZM239.518 189.967C238.726 189.967 237.953 189.732 237.295 189.293C236.638 188.853 236.125 188.228 235.822 187.498C235.519 186.767 235.44 185.962 235.594 185.186C235.749 184.411 236.13 183.698 236.689 183.138C237.249 182.579 237.961 182.198 238.737 182.044C239.513 181.889 240.317 181.969 241.048 182.271C241.779 182.574 242.404 183.087 242.843 183.745C243.283 184.402 243.518 185.176 243.518 185.967C243.518 187.028 243.096 188.045 242.346 188.795C241.596 189.545 240.578 189.967 239.518 189.967Z" fill="#5EE9B5"/>
<path d="M230.518 201.967H248.518" stroke="black" stroke-width="2" stroke-linecap="round" stroke-linejoin="round"/>
<path d="M239.518 189.967C241.727 189.967 243.518 188.176 243.518 185.967C243.518 183.758 241.727 181.967 239.518 181.967C237.308 181.967 235.518 183.758 235.518 185.967C235.518 188.176 237.308 189.967 239.518 189.967Z" stroke="black" stroke-width="2" stroke-linecap="round" stroke-linejoin="round"/>
<path d="M249.518 185.967C249.518 194.967 239.518 201.967 239.518 201.967C239.518 201.967 229.518 194.967 229.518 185.967C229.518 183.315 230.571 180.771 232.447 178.896C234.322 177.02 236.865 175.967 239.518 175.967C242.17 175.967 244.713 177.02 246.589 178.896C248.464 180.771 249.518 183.315 249.518 185.967Z" stroke="black" stroke-width="2" stroke-linecap="round" stroke-linejoin="round"/>
</g>
<g clip-path="url(#clip1_716_725)">
<path d="M420.834 180.557C418.182 180.557 415.638 181.61 413.763 183.486C411.888 185.361 410.834 187.904 410.834 190.557C410.834 199.557 420.834 206.557 420.834 206.557C420.834 206.557 430.834 199.557 430.834 190.557C430.834 187.904 429.78 185.361 427.905 183.486C426.03 181.61 423.486 180.557 420.834 180.557ZM420.834 194.557C420.043 194.557 419.27 194.322 418.612 193.883C417.954 193.443 417.441 192.818 417.138 192.087C416.836 191.356 416.757 190.552 416.911 189.776C417.065 189 417.446 188.288 418.006 187.728C418.565 187.169 419.278 186.788 420.054 186.633C420.83 186.479 421.634 186.558 422.365 186.861C423.096 187.164 423.72 187.677 424.16 188.334C424.599 188.992 424.834 189.766 424.834 190.557C424.834 191.618 424.413 192.635 423.662 193.385C422.912 194.135 421.895 194.557 420.834 194.557Z" fill="#5EE9B5"/>
<path d="M411.834 206.557H429.834" stroke="black" stroke-width="2" stroke-linecap="round" stroke-linejoin="round"/>
<path d="M420.834 194.557C423.043 194.557 424.834 192.766 424.834 190.557C424.834 188.348 423.043 186.557 420.834 186.557C418.625 186.557 416.834 188.348 416.834 190.557C416.834 192.766 418.625 194.557 420.834 194.557Z" stroke="black" stroke-width="2" stroke-linecap="round" stroke-linejoin="round"/>
<path d="M430.834 190.557C430.834 199.557 420.834 206.557 420.834 206.557C420.834 206.557 410.834 199.557 410.834 190.557C410.834 187.904 411.888 185.361 413.763 183.486C415.638 181.61 418.182 180.557 420.834 180.557C423.486 180.557 426.03 181.61 427.905 183.486C429.78 185.361 430.834 187.904 430.834 190.557Z" stroke="black" stroke-width="2" stroke-linecap="round" stroke-linejoin="round"/>
</g>
<g clip-path="url(#clip2_716_725)">
<path d="M637.088 257.75C634.436 257.75 631.892 258.804 630.017 260.679C628.141 262.554 627.088 265.098 627.088 267.75C627.088 276.75 637.088 283.75 637.088 283.75C637.088 283.75 647.088 276.75 647.088 267.75C647.088 265.098 646.034 262.554 644.159 260.679C642.284 258.804 639.74 257.75 637.088 257.75ZM637.088 271.75C636.297 271.75 635.523 271.515 634.866 271.076C634.208 270.636 633.695 270.012 633.392 269.281C633.09 268.55 633.01 267.746 633.165 266.97C633.319 266.194 633.7 265.481 634.259 264.922C634.819 264.362 635.532 263.981 636.308 263.827C637.083 263.673 637.888 263.752 638.619 264.054C639.35 264.357 639.974 264.87 640.414 265.528C640.853 266.186 641.088 266.959 641.088 267.75C641.088 268.811 640.666 269.828 639.916 270.578C639.166 271.329 638.149 271.75 637.088 271.75Z" fill="#5EE9B5"/>
<path d="M628.088 283.75H646.088" stroke="black" stroke-width="2" stroke-linecap="round" stroke-linejoin="round"/>
<path d="M637.088 271.75C639.297 271.75 641.088 269.959 641.088 267.75C641.088 265.541 639.297 263.75 637.088 263.75C634.879 263.75 633.088 265.541 633.088 267.75C633.088 269.959 634.879 271.75 637.088 271.75Z" stroke="black" stroke-width="2" stroke-linecap="round" stroke-linejoin="round"/>
<path d="M647.088 267.75C647.088 276.75 637.088 283.75 637.088 283.75C637.088 283.75 627.088 276.75 627.088 267.75C627.088 265.098 628.141 262.554 630.017 260.679C631.892 258.804 634.436 257.75 637.088 257.75C639.74 257.75 642.284 258.804 644.159 260.679C646.034 262.554 647.088 265.098 647.088 267.75Z" stroke="black" stroke-width="2" stroke-linecap="round" stroke-linejoin="round"/>
</g>
<defs>
<clipPath id="clip0_716_725">
<rect width="32" height="32" fill="white" transform="translate(223.518 172.967)"/>
</clipPath>
<clipPath id="clip1_716_725">
<rect width="32" height="32" fill="white" transform="translate(404.834 177.557)"/>
</clipPath>
<clipPath id="clip2_716_725">
<rect width="32" height="32" fill="white" transform="translate(621.088 254.75)"/>
</clipPath>
</defs>
</svg>
