<svg width="97" height="97" viewBox="0 0 97 97" fill="none" xmlns="http://www.w3.org/2000/svg">
<rect x="0.5" y="0.387939" width="96" height="96" rx="48" fill="#F6F2EF"/>
<ellipse cx="41.7257" cy="44.1953" rx="2.23942" ry="3.35913" fill="#111827"/>
<ellipse cx="55.6945" cy="44.1953" rx="2.23942" ry="3.35913" fill="#111827"/>
<path d="M44.8394 19.3003L42.5139 19.357C36.4711 19.5044 30.8556 22.5062 27.3761 27.4489V27.4489C21.8456 33.8514 22.7193 53.932 24.7558 80.124L43.6725 75.1767V67.1761" stroke="#111827" stroke-width="1.55151" stroke-linecap="round"/>
<path d="M45.0169 19.301L49.5012 18.5711C54.141 17.8159 58.869 19.252 62.305 22.4602V22.4602C68.7029 27.996 71.4808 42.5899 68.5279 77.1382L52.1366 73.6505L52.1366 67.5739" stroke="#111827" stroke-width="1.55151" stroke-linecap="round"/>
<path d="M31.0474 39.3812L32.5592 52.9876C32.9019 56.0719 34.1407 58.9882 36.1225 61.3762L37.025 62.4636C43.4318 70.1833 55.4923 69.4575 60.9269 61.0251V61.0251C62.3247 58.8563 63.1331 56.3606 63.2724 53.7841L64.2239 36.1799" stroke="#111827" stroke-width="1.55151" stroke-linecap="round"/>
<path d="M31.0474 39.09C32.6095 34.8217 38.1233 26.9253 47.6811 29.4863L48.2177 27.4492L48.5087 29.1954C51.71 28.7103 59.102 29.4282 64.2239 36.1799" stroke="#111827" stroke-width="1.55151" stroke-linecap="round"/>
<ellipse cx="29.8839" cy="47.2387" rx="4.94739" ry="8.14864" fill="#111827"/>
<ellipse cx="66.5529" cy="45.4926" rx="4.94739" ry="8.14864" fill="#111827"/>
<path d="M27.9521 43.9795C27.9521 18.9519 67.5854 15.4808 67.5854 41.8589" stroke="#111827" stroke-width="1.55151"/>
<path d="M46.1802 53.9324C46.7622 54.2234 48.3337 54.6308 49.9635 53.9324" stroke="#111827" stroke-width="1.55151"/>
<path d="M43.8521 59.4614C45.2102 60.5285 48.7994 62.197 52.2917 60.3345" stroke="#111827" stroke-width="1.55151"/>
</svg>
