<svg width="97" height="97" viewBox="0 0 97 97" fill="none" xmlns="http://www.w3.org/2000/svg">
<rect x="0.5" y="0.387939" width="96" height="96" rx="48" fill="#F6F2EF"/>
<ellipse cx="43.2784" cy="44.6288" rx="2.09189" ry="3.13785" fill="#111827"/>
<ellipse cx="57.2257" cy="44.6288" rx="2.09189" ry="3.13785" fill="#111827"/>
<path d="M45.3711 58.2256C46.0684 59.2715 48.5089 60.6661 53.0414 59.6202" stroke="#111827" stroke-width="1.71998" stroke-linecap="round"/>
<path d="M48.8574 52.9968C48.9736 53.4617 49.6942 54.252 51.6466 53.6941" stroke="#111827" stroke-width="1.71998" stroke-linecap="round"/>
<path d="M43.6278 18.4798V18.4798C38.3369 17.4216 32.9232 19.6087 29.852 24.0449L28.5313 25.9525C26.5562 28.8055 25.498 32.1929 25.498 35.6628V41.7437C25.498 44.1194 25.1553 46.4826 24.4804 48.7604L23.7178 51.3343C23.0556 53.5693 22.9592 55.9339 23.4372 58.2153L23.9252 60.5441C24.3654 62.6447 23.9668 64.8341 22.8146 66.6448V66.6448C19.8932 71.2356 22.1567 77.3469 27.3637 78.9271L28.3937 79.2397C29.7003 79.6362 31.0798 79.7316 32.4286 79.5186L33.5027 79.349C35.7992 78.9864 37.9665 78.0486 39.8029 76.6228L39.8354 76.5976V76.5976C42.3988 74.7178 43.9132 71.7292 43.9132 68.5505V66.1366" stroke="#111827" stroke-width="1.71998" stroke-linecap="round"/>
<path d="M65.5928 42.281C70.1252 36.3535 74.309 49.9516 64.8955 51.3458" stroke="#111827" stroke-width="1.71998" stroke-linecap="round"/>
<path d="M32.2011 42.9793C27.6687 37.0518 23.4849 50.6498 32.8984 52.044" stroke="#111827" stroke-width="1.71998" stroke-linecap="round"/>
<path d="M41.8848 26.1809C47.955 25.8415 61.1948 28.1494 65.5929 40.0959" stroke="#111827" stroke-width="1.71998" stroke-linecap="round"/>
<path d="M32.123 38.353L33.3248 51.8128C33.6734 55.7174 35.4535 59.3552 38.3226 62.0264L39.5186 63.14C46.7539 69.8763 58.4443 67.6804 62.7421 58.7779V58.7779C63.4753 57.2592 63.9413 55.6256 64.1197 53.9487L65.5933 40.0963" stroke="#111827" stroke-width="1.71998" stroke-linecap="round"/>
<path d="M41.7133 25.4897C41.8295 28.1627 40.0398 34.4849 31.9512 38.3898" stroke="#111827" stroke-width="1.71998" stroke-linecap="round"/>
<path d="M43.9766 18.4798L45.3912 18.094C49.4675 16.9823 53.7837 17.1206 57.7805 18.4909L58.2617 18.6559C61.9045 19.9049 65.0937 22.2088 67.4238 25.2748V25.2748C69.424 27.9066 70.7192 31.0056 71.1867 34.278L71.4531 36.143C71.728 38.0671 72.3278 39.9306 73.2269 41.6538V41.6538C75.0543 45.1564 75.6172 49.1822 74.8205 53.0517L74.5146 54.5379C73.9191 57.4302 73.928 60.4144 74.5408 63.3031L75.4733 67.6994C75.8531 69.4897 75.7728 71.347 75.2399 73.0978L74.6119 75.1611C73.9845 77.2227 72.397 78.8525 70.3527 79.534V79.534C67.8785 80.3587 65.1507 79.6612 63.3762 77.7501L62.7536 77.0796C62.095 76.3704 61.3142 75.7854 60.4485 75.3525L60.334 75.2953C57.3604 73.8084 55.482 70.7691 55.482 67.4445V66.2449" stroke="#111827" stroke-width="1.71998" stroke-linecap="round"/>
<path d="M30.4734 24.0334L32.0151 26.1532C32.0319 26.1763 32.0181 26.2089 31.9898 26.213L29.2509 26.6042C27.984 26.7852 26.9393 27.6892 26.5781 28.9171C25.9879 30.9237 27.4087 32.9605 29.4957 33.0996L30.0169 33.1344C30.4407 33.1626 30.8663 33.1174 31.2748 33.0007L33.034 32.4981C33.0574 32.4914 33.077 32.5165 33.065 32.5376L32.6139 33.327C32.0415 34.3287 31.9802 35.543 32.4487 36.5973C32.8624 37.528 33.6485 38.2417 34.6147 38.5637L35.0417 38.7061C35.8168 38.9645 36.6548 38.9645 37.4299 38.7061C39.1612 38.129 40.232 36.3964 39.974 34.5898L39.737 32.9311C39.7329 32.9021 39.7695 32.886 39.788 32.9087L40.9945 34.3833C42.1132 35.7507 43.971 36.2669 45.6348 35.6726L45.7579 35.6287C46.997 35.1861 47.9329 34.1536 48.252 32.8772C48.7507 30.8823 47.6295 28.8398 45.6788 28.1896L42.9307 27.2735C42.9058 27.2652 42.9043 27.2307 42.9282 27.2202L44.4811 26.5409C46.6332 25.5993 47.5573 23.0469 46.5068 20.9459L46.4451 20.8226C45.5835 19.0994 43.6025 18.2517 41.7612 18.8183C40.8935 19.0853 40.1446 19.6436 39.641 20.3989L38.3677 22.309C38.348 22.3385 38.3053 22.34 38.2835 22.3121L36.3237 19.7923C36.0354 19.4216 35.6787 19.1095 35.2731 18.8728L35.1851 18.8215C33.3309 17.7399 30.9482 18.5167 30.0878 20.4834C29.5769 21.6512 29.7236 23.0025 30.4734 24.0334Z" fill="#111827" stroke="#111827" stroke-width="1.71998" stroke-linecap="round"/>
<ellipse cx="37.2813" cy="28.2965" rx="2.09189" ry="2.0919" fill="white"/>
</svg>
